<?xml version="1.0" encoding="iso-8859-1"?>
<!-- Generator: Adobe Illustrator 19.0.0, SVG Export Plug-In . SVG Version: 6.00 Build 0)  -->
<svg version="1.1" id="Layer_1" xmlns="http://www.w3.org/2000/svg" xmlns:xlink="http://www.w3.org/1999/xlink" x="0px" y="0px"
	 viewBox="0 0 512 512" style="enable-background:new 0 0 512 512;" xml:space="preserve">
<g>
	<g>
		<path d="M450.232,127.477c-7.758-26.211-20.223-48.274-38.112-67.449c-17.491-18.757-37.614-32.982-61.536-43.487
			C323.341,4.604,291.76-1.199,261.585,0.207c-11.009,0.504-21.758,1.082-32.299,2.608c-29.686,4.238-55.832,13.093-79.934,27.063
			c-30.743,17.835-54.745,42.101-71.328,72.126c-8.626,15.616-17.112,43.173-20.721,61.167c-4.268,21.215-0.509,58.011,8.057,78.762
			c10.7,25.862,19.505,36.932,40.974,52.932c0.13,0.095,12.884,9.122,21.968,9.122c0.09,0,0.189,0,0.289,0
			c16.095,0,19.286-15.324,20.831-22.728c0.289-1.396,0.569-2.58,0.908-3.877c0.299-1.148,0.688-2.276,1.077-3.552
			c2.273-7.354,5.375-17.372,0.229-26.297c-1.935-3.346-4.218-5.923-6.232-8.212c-1.097-1.247-2.194-2.436-3.081-3.762
			c-7.638-11.343-11.507-25.531-11.507-42.179c0-21.843,4.946-41.625,15.117-60.477c18.458-34.193,49.091-55.776,88.6-62.427
			c22.496-3.769,48.692-2.193,68.347,4.109c17.959,5.759,33.246,15.945,44.215,29.472c11.607,14.315,18.249,32.474,19.714,53.978
			c0.957,13.726-0.289,27.548-1.316,36.732c-3.969,35.34-14.26,63.79-30.573,84.571c-13.362,17.052-27.771,25.603-44.065,26.151
			c-10.54,0.399-18.328-1.735-25.428-6.816c-6.681-4.767-10.66-10.645-12.534-18.478c-2.124-8.945,0.449-18.224,3.171-28.046
			l0.429-1.561c2.383-8.64,4.866-16.533,7.309-24.301c3.839-12.24,7.818-24.9,11.099-39.583c3.709-16.573,4.198-29.955,1.516-40.894
			c-3.311-13.587-10.61-23.763-21.709-30.255c-11.727-6.831-28.35-8.147-42.3-3.351c-20.801,7.105-36.666,25.997-43.537,51.823
			c-3.49,13.118-4.497,26.889-2.992,40.909c1.157,10.989,3.61,20.971,8.157,33.032c-0.149,0.533-0.329,1.092-0.499,1.63
			c-0.309,1.057-0.608,2.069-0.838,2.987c-4.806,20.048-9.473,39.832-14.14,59.581c-4.587,19.44-9.174,38.85-13.871,58.46
			l-1.037,4.323c-4.717,19.605-9.583,39.872-10.71,64.079l-0.509,9.937c-0.997,18.872-2.024,38.381,0.509,56.475
			c0.499,3.505,1.625,11.343,9.354,14.09c2.313,1.735,4.547,2.468,6.711,2.468c6.482,0,12.255-6.586,17.161-12.176
			c16.015-18.213,29.646-41.208,41.652-70.301c5.375-13.008,8.935-27.004,12.375-40.545l2.074-8.067
			c2.513-9.643,4.976-19.415,7.409-29.083l0.16-0.638c4.527,3.959,9.752,7.534,15.805,10.844
			c12.814,7.095,27.273,11.228,42.959,12.28c14.718,0.997,30.185-0.887,47.266-5.789c12.973-3.7,25.398-9.319,36.935-16.708
			c41.393-26.505,69.613-72.874,79.455-130.556c2.952-17.241,4.208-31.097,4.208-46.334
			C456.465,157.352,454.371,141.382,450.232,127.477z M432.133,217.821c-8.875,51.953-33.854,93.431-70.341,116.795
			c-9.862,6.317-20.472,11.114-31.551,14.275c-14.768,4.243-27.981,5.893-40.256,5.051c-12.873-0.867-24.142-4.063-34.502-9.802
			c-10.351-5.659-17.082-11.817-21.798-19.964l-12.524-21.609l-11.288,44.275c-2.423,9.613-4.866,19.325-7.369,28.918l-2.094,8.187
			c-3.42,13.432-6.641,26.121-11.468,37.778c-10.76,26.066-22.756,46.678-36.656,62.927c-1.077-13.881-0.259-29.462,0.539-44.604
			l0.518-10.062c1.027-22.277,5.674-41.587,10.161-60.26l1.047-4.348c4.697-19.625,9.284-39.055,13.881-58.519
			c4.667-19.724,9.334-39.488,14.11-59.457l0.559-1.93c1.237-4.138,2.523-8.411,0.798-12.749
			c-4.378-11.223-6.691-20.173-7.718-29.94c-1.227-11.537-0.419-22.815,2.433-33.51c5.086-19.121,16.164-32.882,30.404-37.748
			c3.53-1.212,7.24-1.73,10.78-1.73c5.804,0,11.168,1.386,14.619,3.4c6.202,3.63,10.181,9.339,12.156,17.466
			c1.895,7.718,1.356,18.348-1.596,31.591c-3.101,13.836-6.771,25.533-10.66,37.918c-2.513,7.983-5.056,16.095-7.509,24.979
			l-0.429,1.545c-3.141,11.328-6.701,24.172-3.351,38.237c3.041,12.739,9.762,22.666,20.522,30.359
			c10.71,7.648,23.244,11.094,37.993,10.61c22.377-0.753,42.37-12.181,59.442-33.954c18.697-23.808,30.404-55.732,34.812-94.912
			c1.107-9.987,2.463-25.039,1.396-40.406c-1.775-25.777-9.922-47.79-24.231-65.435c-13.472-16.613-32.09-29.083-53.848-36.053
			c-22.576-7.245-52.452-9.094-77.96-4.806c-45.95,7.738-81.629,32.932-103.188,72.869c-11.827,21.908-17.57,44.863-17.57,70.182
			c0,20.786,5.036,38.81,14.977,53.579c1.366,2.039,3.002,3.944,4.697,5.864c1.526,1.735,2.961,3.37,3.839,4.891
			c0.618,1.665-1.157,7.424-2.014,10.191c-0.479,1.56-0.937,3.061-1.306,4.462c-0.429,1.63-0.798,3.366-1.167,5.125
			c-0.399,1.93-1.017,4.901-1.655,6.532c-2.433-0.947-6.84-3.37-9.234-5.15c-18.348-13.671-25.079-22.457-34.293-44.744
			c-6.911-16.753-10.341-49.909-6.911-66.941c3.829-19.091,11.986-43.387,18.568-55.319c14.778-26.734,36.208-48.383,63.71-64.333
			c21.789-12.629,45.521-20.647,72.595-24.516c9.633-1.396,19.844-1.939,30.334-2.418c27.064-1.262,55.433,3.929,79.844,14.634
			c21.32,9.364,39.249,22.023,54.805,38.716c15.686,16.807,26.625,36.208,33.465,59.327c3.58,12.026,5.395,26.037,5.395,41.643
			C436.042,188.948,434.876,201.777,432.133,217.821z"/>
	</g>
</g>
<g>
</g>
<g>
</g>
<g>
</g>
<g>
</g>
<g>
</g>
<g>
</g>
<g>
</g>
<g>
</g>
<g>
</g>
<g>
</g>
<g>
</g>
<g>
</g>
<g>
</g>
<g>
</g>
<g>
</g>
</svg>
